M48
; DRILL file {KiCad 8.0.6} date 2026-02-18T09:30:02+1100
; FORMAT={-:-/ absolute / inch / decimal}
; #@! TF.CreationDate,2026-02-18T09:30:02+11:00
; #@! TF.GenerationSoftware,Kicad,Pcbnew,8.0.6
; #@! TF.FileFunction,Plated,1,2,PTH
FMAT,2
INCH
; #@! TA.AperFunction,Plated,PTH,ComponentDrill
T1C0.0315
; #@! TA.AperFunction,Plated,PTH,ComponentDrill
T2C0.0354
; #@! TA.AperFunction,Plated,PTH,ComponentDrill
T3C0.0394
; #@! TA.AperFunction,Plated,PTH,ComponentDrill
T4C0.0598
; #@! TA.AperFunction,Plated,PTH,ComponentDrill
T5C0.0984
%
G90
G05
T1
X4.4205Y-2.5208
X4.4205Y-2.8208
X4.6473Y-2.4725
X4.6473Y-2.8725
X4.8042Y-2.4725
X4.8042Y-2.8725
X4.9611Y-2.4725
X4.9611Y-2.8725
X5.118Y-2.4725
X5.118Y-2.8725
X5.2749Y-2.4725
X5.2749Y-2.8725
X5.4318Y-2.4725
X5.4318Y-2.8725
X5.5886Y-2.4725
X5.5886Y-2.8725
T2
X4.6686Y-2.105
X4.6686Y-2.205
X4.9737Y-2.105
X4.9737Y-2.205
X5.2788Y-2.105
X5.2788Y-2.205
T3
X3.1875Y-2.3018
X3.2875Y-2.3018
X3.3875Y-2.3018
X3.4664Y-3.1037
X3.4664Y-3.2037
X3.4875Y-2.3018
X3.5166Y-1.7018
X3.5664Y-3.1037
X3.5664Y-3.2037
X3.5875Y-2.3018
X3.6544Y-1.7018
X3.6664Y-3.1037
X3.6664Y-3.2037
X3.6875Y-2.3018
X3.7664Y-3.1037
X3.7664Y-3.2037
X3.7875Y-2.3018
X3.8664Y-3.1037
X3.8664Y-3.2037
X3.8875Y-2.3018
X3.9664Y-3.1037
X3.9664Y-3.2037
X3.9875Y-2.3018
X4.0664Y-3.1037
X4.0664Y-3.2037
X4.1664Y-3.1037
X4.1664Y-3.2037
X4.2664Y-3.1037
X4.2664Y-3.2037
X4.3664Y-3.1037
X4.3664Y-3.2037
X4.4664Y-3.1037
X4.4664Y-3.2037
X4.5664Y-3.1037
X4.5664Y-3.2037
X4.6664Y-3.1037
X4.6664Y-3.2037
X4.7664Y-3.1037
X4.7664Y-3.2037
X4.8664Y-3.1037
X4.8664Y-3.2037
X4.9664Y-3.1037
X4.9664Y-3.2037
X5.0664Y-3.1037
X5.0664Y-3.2037
X5.1664Y-3.1037
X5.1664Y-3.2037
X5.2664Y-3.1037
X5.2664Y-3.2037
X5.3664Y-3.1037
X5.3664Y-3.2037
T4
X4.2477Y-1.7192
X4.4477Y-1.7192
X4.667Y-1.7192
X4.867Y-1.7192
X5.0843Y-1.7192
X5.2843Y-1.7192
X5.5016Y-1.7192
X5.7016Y-1.7192
T5
X3.2125Y-1.6468
X3.9625Y-1.6468
M30
