%TF.GenerationSoftware,KiCad,Pcbnew,8.0.6*%
%TF.CreationDate,2026-02-18T09:29:58+11:00*%
%TF.ProjectId,PCB,5043422e-6b69-4636-9164-5f7063625858,rev?*%
%TF.SameCoordinates,Original*%
%TF.FileFunction,Profile,NP*%
%FSLAX46Y46*%
G04 Gerber Fmt 4.6, Leading zero omitted, Abs format (unit mm)*
G04 Created by KiCad (PCBNEW 8.0.6) date 2026-02-18 09:29:58*
%MOMM*%
%LPD*%
G01*
G04 APERTURE LIST*
%TA.AperFunction,Profile*%
%ADD10C,0.200000*%
%TD*%
G04 APERTURE END LIST*
D10*
X154300000Y-38000000D02*
X154376177Y-38005792D01*
X154451246Y-38015331D01*
X154525113Y-38028522D01*
X154597684Y-38045272D01*
X154668865Y-38065485D01*
X154738562Y-38089067D01*
X154806679Y-38115925D01*
X154873123Y-38145964D01*
X154937801Y-38179090D01*
X155000616Y-38215208D01*
X155061476Y-38254224D01*
X155120285Y-38296045D01*
X155176951Y-38340575D01*
X155231377Y-38387721D01*
X155283471Y-38437388D01*
X155333138Y-38489482D01*
X155380284Y-38543909D01*
X155424814Y-38600574D01*
X155466634Y-38659383D01*
X155505651Y-38720243D01*
X155541769Y-38783059D01*
X155574894Y-38847736D01*
X155604933Y-38914180D01*
X155631791Y-38982297D01*
X155655373Y-39051994D01*
X155675586Y-39123174D01*
X155692336Y-39195745D01*
X155705527Y-39269613D01*
X155715066Y-39344682D01*
X155720858Y-39420858D01*
X155722810Y-39498048D01*
X155722810Y-106498051D01*
X155720858Y-106575241D01*
X155715066Y-106651418D01*
X155705527Y-106726487D01*
X155692336Y-106800354D01*
X155675586Y-106872925D01*
X155655373Y-106944106D01*
X155631791Y-107013802D01*
X155604933Y-107081920D01*
X155574894Y-107148364D01*
X155541769Y-107213041D01*
X155505651Y-107275857D01*
X155466634Y-107336716D01*
X155424814Y-107395526D01*
X155380284Y-107452191D01*
X155333138Y-107506618D01*
X155283471Y-107558712D01*
X155231377Y-107608379D01*
X155176951Y-107655525D01*
X155120285Y-107700055D01*
X155061476Y-107741875D01*
X155000616Y-107780891D01*
X154937801Y-107817009D01*
X154873123Y-107850135D01*
X154806679Y-107880174D01*
X154738562Y-107907032D01*
X154668865Y-107930614D01*
X154597684Y-107950827D01*
X154525113Y-107967576D01*
X154451246Y-107980767D01*
X154376177Y-107990306D01*
X154300000Y-107996099D01*
X154222810Y-107998051D01*
X72222810Y-107998051D01*
X72145620Y-107996099D01*
X72069443Y-107990306D01*
X71994374Y-107980767D01*
X71920507Y-107967576D01*
X71847936Y-107950827D01*
X71776755Y-107930614D01*
X71707059Y-107907032D01*
X71638941Y-107880174D01*
X71572497Y-107850135D01*
X71507820Y-107817009D01*
X71445004Y-107780891D01*
X71384145Y-107741875D01*
X71325335Y-107700055D01*
X71268670Y-107655525D01*
X71214243Y-107608379D01*
X71162149Y-107558712D01*
X71112482Y-107506618D01*
X71065336Y-107452191D01*
X71020806Y-107395526D01*
X70978986Y-107336716D01*
X70939969Y-107275857D01*
X70903851Y-107213041D01*
X70870726Y-107148364D01*
X70840687Y-107081920D01*
X70813829Y-107013802D01*
X70790247Y-106944106D01*
X70770034Y-106872925D01*
X70753285Y-106800354D01*
X70740093Y-106726487D01*
X70730554Y-106651418D01*
X70724762Y-106575241D01*
X70722810Y-106498051D01*
X70722810Y-39498048D01*
X70724762Y-39420858D01*
X70730554Y-39344682D01*
X70740093Y-39269613D01*
X70753285Y-39195745D01*
X70770034Y-39123174D01*
X70790247Y-39051994D01*
X70813829Y-38982297D01*
X70840687Y-38914180D01*
X70870726Y-38847736D01*
X70903851Y-38783059D01*
X70939969Y-38720243D01*
X70978986Y-38659383D01*
X71020806Y-38600574D01*
X71065336Y-38543909D01*
X71112482Y-38489482D01*
X71162149Y-38437388D01*
X71214243Y-38387721D01*
X71268670Y-38340575D01*
X71325335Y-38296045D01*
X71384145Y-38254224D01*
X71445004Y-38215208D01*
X71507820Y-38179090D01*
X71572497Y-38145964D01*
X71638941Y-38115925D01*
X71707059Y-38089067D01*
X71776755Y-38065485D01*
X71847936Y-38045272D01*
X71920507Y-38028522D01*
X71994374Y-38015331D01*
X72069443Y-38005792D01*
X72145620Y-38000000D01*
X72222810Y-37998048D01*
X154222810Y-37998048D01*
X154300000Y-38000000D01*
M02*
