%TF.GenerationSoftware,KiCad,Pcbnew,8.0.6*%
%TF.CreationDate,2026-02-18T09:29:58+11:00*%
%TF.ProjectId,PCB,5043422e-6b69-4636-9164-5f7063625858,rev?*%
%TF.SameCoordinates,Original*%
%TF.FileFunction,Soldermask,Top*%
%TF.FilePolarity,Negative*%
%FSLAX46Y46*%
G04 Gerber Fmt 4.6, Leading zero omitted, Abs format (unit mm)*
G04 Created by KiCad (PCBNEW 8.0.6) date 2026-02-18 09:29:58*
%MOMM*%
%LPD*%
G01*
G04 APERTURE LIST*
G04 Aperture macros list*
%AMRoundRect*
0 Rectangle with rounded corners*
0 $1 Rounding radius*
0 $2 $3 $4 $5 $6 $7 $8 $9 X,Y pos of 4 corners*
0 Add a 4 corners polygon primitive as box body*
4,1,4,$2,$3,$4,$5,$6,$7,$8,$9,$2,$3,0*
0 Add four circle primitives for the rounded corners*
1,1,$1+$1,$2,$3*
1,1,$1+$1,$4,$5*
1,1,$1+$1,$6,$7*
1,1,$1+$1,$8,$9*
0 Add four rect primitives between the rounded corners*
20,1,$1+$1,$2,$3,$4,$5,0*
20,1,$1+$1,$4,$5,$6,$7,0*
20,1,$1+$1,$6,$7,$8,$9,0*
20,1,$1+$1,$8,$9,$2,$3,0*%
G04 Aperture macros list end*
%ADD10C,5.000000*%
%ADD11C,3.500000*%
%ADD12RoundRect,0.102000X-0.754000X-0.754000X0.754000X-0.754000X0.754000X0.754000X-0.754000X0.754000X0*%
%ADD13C,1.712000*%
%ADD14R,3.000000X3.000000*%
%ADD15C,3.000000*%
%ADD16C,2.286000*%
%ADD17C,1.879600*%
%ADD18C,3.301600*%
%ADD19C,1.600000*%
%ADD20O,1.600000X1.600000*%
%ADD21R,1.800000X1.800000*%
%ADD22C,1.800000*%
%ADD23R,1.600000X1.600000*%
G04 APERTURE END LIST*
D10*
%TO.C,*%
X74722810Y-41998048D03*
%TD*%
D11*
%TO.C,Pi02w1*%
X83176500Y-80103500D03*
D10*
X83176500Y-103103500D03*
D11*
X141176500Y-80103500D03*
D10*
X141176500Y-103103500D03*
D12*
X88046500Y-81373500D03*
D13*
X88046500Y-78833500D03*
X90586500Y-81373500D03*
X90586500Y-78833500D03*
X93126500Y-81373500D03*
X93126500Y-78833500D03*
X95666500Y-81373500D03*
X95666500Y-78833500D03*
X98206500Y-81373500D03*
X98206500Y-78833500D03*
X100746500Y-81373500D03*
X100746500Y-78833500D03*
X103286500Y-81373500D03*
X103286500Y-78833500D03*
X105826500Y-81373500D03*
X105826500Y-78833500D03*
X108366500Y-81373500D03*
X108366500Y-78833500D03*
X110906500Y-81373500D03*
X110906500Y-78833500D03*
X113446500Y-81373500D03*
X113446500Y-78833500D03*
X115986500Y-81373500D03*
X115986500Y-78833500D03*
X118526500Y-81373500D03*
X118526500Y-78833500D03*
X121066500Y-81373500D03*
X121066500Y-78833500D03*
X123606500Y-81373500D03*
X123606500Y-78833500D03*
X126146500Y-81373500D03*
X126146500Y-78833500D03*
X128686500Y-81373500D03*
X128686500Y-78833500D03*
X131226500Y-81373500D03*
X131226500Y-78833500D03*
X133766500Y-81373500D03*
X133766500Y-78833500D03*
X136306500Y-81373500D03*
X136306500Y-78833500D03*
%TD*%
D10*
%TO.C,*%
X151722810Y-41998047D03*
%TD*%
D14*
%TO.C,J3-Fan1*%
X112971500Y-43666500D03*
D15*
X107891500Y-43666500D03*
%TD*%
D16*
%TO.C,Therm1*%
X89321500Y-43226500D03*
D17*
X101281500Y-58466500D03*
D16*
X92821500Y-43226500D03*
D17*
X98741500Y-58466500D03*
X96201500Y-58466500D03*
X93661500Y-58466500D03*
X91121500Y-58466500D03*
X88581500Y-58466500D03*
X86041500Y-58466500D03*
X83501500Y-58466500D03*
X80961500Y-58466500D03*
D18*
X81596500Y-41829500D03*
X100646500Y-41829500D03*
%TD*%
D10*
%TO.C,*%
X151722810Y-72998051D03*
%TD*%
D14*
%TO.C,J1-Heat*%
X144821500Y-43666500D03*
D15*
X139741500Y-43666500D03*
%TD*%
D14*
%TO.C,J3-GND1*%
X123621500Y-43666500D03*
D15*
X118541500Y-43666500D03*
%TD*%
D19*
%TO.C,R4*%
X118041092Y-72960852D03*
D20*
X118041092Y-62800852D03*
%TD*%
D21*
%TO.C,D2*%
X126331500Y-53466500D03*
D22*
X126331500Y-56006500D03*
%TD*%
D19*
%TO.C,R2*%
X137966602Y-72960852D03*
D20*
X137966602Y-62800852D03*
%TD*%
D19*
%TO.C,R6*%
X126011296Y-72960852D03*
D20*
X126011296Y-62800852D03*
%TD*%
D19*
%TO.C,R3*%
X141951708Y-72960852D03*
D20*
X141951708Y-62800852D03*
%TD*%
D14*
%TO.C,J2-Cool*%
X134221500Y-43666500D03*
D15*
X129141500Y-43666500D03*
%TD*%
D21*
%TO.C,D3*%
X134081500Y-53466500D03*
D22*
X134081500Y-56006500D03*
%TD*%
D10*
%TO.C,*%
X74722810Y-103998051D03*
%TD*%
D19*
%TO.C,R1*%
X133981500Y-72960852D03*
D20*
X133981500Y-62800852D03*
%TD*%
D21*
%TO.C,D1*%
X118581500Y-53466500D03*
D22*
X118581500Y-56006500D03*
%TD*%
D10*
%TO.C,*%
X74722810Y-72998051D03*
%TD*%
D19*
%TO.C,R5*%
X122026194Y-72960852D03*
D20*
X122026194Y-62800852D03*
%TD*%
D10*
%TO.C,*%
X151722810Y-103998051D03*
%TD*%
D23*
%TO.C,SW1*%
X112281500Y-71648352D03*
D20*
X112281500Y-64028352D03*
%TD*%
D19*
%TO.C,R7*%
X129996398Y-72960852D03*
D20*
X129996398Y-62800852D03*
%TD*%
M02*
